<?xml version="1.0" encoding="utf-8" standalone="no"?>
<!DOCTYPE svg PUBLIC "-//W3C//DTD SVG 1.1//EN"
  "http://www.w3.org/Graphics/SVG/1.1/DTD/svg11.dtd">
<!-- Created with matplotlib (https://matplotlib.org/) -->
<svg height="288pt" version="1.1" viewBox="0 0 432 288" width="432pt" xmlns="http://www.w3.org/2000/svg" xmlns:xlink="http://www.w3.org/1999/xlink">
 <defs>
  <style type="text/css">
*{stroke-linecap:butt;stroke-linejoin:round;}
  </style>
 </defs>
 <g id="figure_1">
  <g id="patch_1">
   <path d="M 0 288 
L 432 288 
L 432 0 
L 0 0 
z
" style="fill:#ffffff;"/>
  </g>
  <g id="axes_1">
   <g id="patch_2">
    <path d="M 54 230.4 
L 388.8 230.4 
L 388.8 34.56 
L 54 34.56 
z
" style="fill:#ffffff;"/>
   </g>
   <g id="matplotlib.axis_1">
    <g id="xtick_1">
     <g id="line2d_1">
      <path clip-path="url(#pdefd040872)" d="M 71.811228 230.4 
L 71.811228 34.56 
" style="fill:none;stroke:#b0b0b0;stroke-linecap:square;stroke-width:0.8;"/>
     </g>
     <g id="line2d_2">
      <defs>
       <path d="M 0 0 
L 0 3.5 
" id="m091b1bd9b7" style="stroke:#000000;stroke-width:0.8;"/>
      </defs>
      <g>
       <use style="stroke:#000000;stroke-width:0.8;" x="71.811228" xlink:href="#m091b1bd9b7" y="230.4"/>
      </g>
     </g>
     <g id="text_1">
      <!-- 02-10 -->
      <defs>
       <path d="M 31.78125 66.40625 
Q 24.171875 66.40625 20.328125 58.90625 
Q 16.5 51.421875 16.5 36.375 
Q 16.5 21.390625 20.328125 13.890625 
Q 24.171875 6.390625 31.78125 6.390625 
Q 39.453125 6.390625 43.28125 13.890625 
Q 47.125 21.390625 47.125 36.375 
Q 47.125 51.421875 43.28125 58.90625 
Q 39.453125 66.40625 31.78125 66.40625 
z
M 31.78125 74.21875 
Q 44.046875 74.21875 50.515625 64.515625 
Q 56.984375 54.828125 56.984375 36.375 
Q 56.984375 17.96875 50.515625 8.265625 
Q 44.046875 -1.421875 31.78125 -1.421875 
Q 19.53125 -1.421875 13.0625 8.265625 
Q 6.59375 17.96875 6.59375 36.375 
Q 6.59375 54.828125 13.0625 64.515625 
Q 19.53125 74.21875 31.78125 74.21875 
z
" id="DejaVuSans-48"/>
       <path d="M 19.1875 8.296875 
L 53.609375 8.296875 
L 53.609375 0 
L 7.328125 0 
L 7.328125 8.296875 
Q 12.9375 14.109375 22.625 23.890625 
Q 32.328125 33.6875 34.8125 36.53125 
Q 39.546875 41.84375 41.421875 45.53125 
Q 43.3125 49.21875 43.3125 52.78125 
Q 43.3125 58.59375 39.234375 62.25 
Q 35.15625 65.921875 28.609375 65.921875 
Q 23.96875 65.921875 18.8125 64.3125 
Q 13.671875 62.703125 7.8125 59.421875 
L 7.8125 69.390625 
Q 13.765625 71.78125 18.9375 73 
Q 24.125 74.21875 28.421875 74.21875 
Q 39.75 74.21875 46.484375 68.546875 
Q 53.21875 62.890625 53.21875 53.421875 
Q 53.21875 48.921875 51.53125 44.890625 
Q 49.859375 40.875 45.40625 35.40625 
Q 44.1875 33.984375 37.640625 27.21875 
Q 31.109375 20.453125 19.1875 8.296875 
z
" id="DejaVuSans-50"/>
       <path d="M 4.890625 31.390625 
L 31.203125 31.390625 
L 31.203125 23.390625 
L 4.890625 23.390625 
z
" id="DejaVuSans-45"/>
       <path d="M 12.40625 8.296875 
L 28.515625 8.296875 
L 28.515625 63.921875 
L 10.984375 60.40625 
L 10.984375 69.390625 
L 28.421875 72.90625 
L 38.28125 72.90625 
L 38.28125 8.296875 
L 54.390625 8.296875 
L 54.390625 0 
L 12.40625 0 
z
" id="DejaVuSans-49"/>
      </defs>
      <g transform="translate(45.60658 258.509346)rotate(-30)scale(0.1 -0.1)">
       <use xlink:href="#DejaVuSans-48"/>
       <use x="63.623047" xlink:href="#DejaVuSans-50"/>
       <use x="127.246094" xlink:href="#DejaVuSans-45"/>
       <use x="163.330078" xlink:href="#DejaVuSans-49"/>
       <use x="226.953125" xlink:href="#DejaVuSans-48"/>
      </g>
     </g>
    </g>
    <g id="xtick_2">
     <g id="line2d_3">
      <path clip-path="url(#pdefd040872)" d="M 138.771228 230.4 
L 138.771228 34.56 
" style="fill:none;stroke:#b0b0b0;stroke-linecap:square;stroke-width:0.8;"/>
     </g>
     <g id="line2d_4">
      <g>
       <use style="stroke:#000000;stroke-width:0.8;" x="138.771228" xlink:href="#m091b1bd9b7" y="230.4"/>
      </g>
     </g>
     <g id="text_2">
      <!-- 03-10 -->
      <defs>
       <path d="M 40.578125 39.3125 
Q 47.65625 37.796875 51.625 33 
Q 55.609375 28.21875 55.609375 21.1875 
Q 55.609375 10.40625 48.1875 4.484375 
Q 40.765625 -1.421875 27.09375 -1.421875 
Q 22.515625 -1.421875 17.65625 -0.515625 
Q 12.796875 0.390625 7.625 2.203125 
L 7.625 11.71875 
Q 11.71875 9.328125 16.59375 8.109375 
Q 21.484375 6.890625 26.8125 6.890625 
Q 36.078125 6.890625 40.9375 10.546875 
Q 45.796875 14.203125 45.796875 21.1875 
Q 45.796875 27.640625 41.28125 31.265625 
Q 36.765625 34.90625 28.71875 34.90625 
L 20.21875 34.90625 
L 20.21875 43.015625 
L 29.109375 43.015625 
Q 36.375 43.015625 40.234375 45.921875 
Q 44.09375 48.828125 44.09375 54.296875 
Q 44.09375 59.90625 40.109375 62.90625 
Q 36.140625 65.921875 28.71875 65.921875 
Q 24.65625 65.921875 20.015625 65.03125 
Q 15.375 64.15625 9.8125 62.3125 
L 9.8125 71.09375 
Q 15.4375 72.65625 20.34375 73.4375 
Q 25.25 74.21875 29.59375 74.21875 
Q 40.828125 74.21875 47.359375 69.109375 
Q 53.90625 64.015625 53.90625 55.328125 
Q 53.90625 49.265625 50.4375 45.09375 
Q 46.96875 40.921875 40.578125 39.3125 
z
" id="DejaVuSans-51"/>
      </defs>
      <g transform="translate(112.56658 258.509346)rotate(-30)scale(0.1 -0.1)">
       <use xlink:href="#DejaVuSans-48"/>
       <use x="63.623047" xlink:href="#DejaVuSans-51"/>
       <use x="127.246094" xlink:href="#DejaVuSans-45"/>
       <use x="163.330078" xlink:href="#DejaVuSans-49"/>
       <use x="226.953125" xlink:href="#DejaVuSans-48"/>
      </g>
     </g>
    </g>
    <g id="xtick_3">
     <g id="line2d_5">
      <path clip-path="url(#pdefd040872)" d="M 205.731228 230.4 
L 205.731228 34.56 
" style="fill:none;stroke:#b0b0b0;stroke-linecap:square;stroke-width:0.8;"/>
     </g>
     <g id="line2d_6">
      <g>
       <use style="stroke:#000000;stroke-width:0.8;" x="205.731228" xlink:href="#m091b1bd9b7" y="230.4"/>
      </g>
     </g>
     <g id="text_3">
      <!-- 04-10 -->
      <defs>
       <path d="M 37.796875 64.3125 
L 12.890625 25.390625 
L 37.796875 25.390625 
z
M 35.203125 72.90625 
L 47.609375 72.90625 
L 47.609375 25.390625 
L 58.015625 25.390625 
L 58.015625 17.1875 
L 47.609375 17.1875 
L 47.609375 0 
L 37.796875 0 
L 37.796875 17.1875 
L 4.890625 17.1875 
L 4.890625 26.703125 
z
" id="DejaVuSans-52"/>
      </defs>
      <g transform="translate(179.52658 258.509346)rotate(-30)scale(0.1 -0.1)">
       <use xlink:href="#DejaVuSans-48"/>
       <use x="63.623047" xlink:href="#DejaVuSans-52"/>
       <use x="127.246094" xlink:href="#DejaVuSans-45"/>
       <use x="163.330078" xlink:href="#DejaVuSans-49"/>
       <use x="226.953125" xlink:href="#DejaVuSans-48"/>
      </g>
     </g>
    </g>
    <g id="xtick_4">
     <g id="line2d_7">
      <path clip-path="url(#pdefd040872)" d="M 272.691228 230.4 
L 272.691228 34.56 
" style="fill:none;stroke:#b0b0b0;stroke-linecap:square;stroke-width:0.8;"/>
     </g>
     <g id="line2d_8">
      <g>
       <use style="stroke:#000000;stroke-width:0.8;" x="272.691228" xlink:href="#m091b1bd9b7" y="230.4"/>
      </g>
     </g>
     <g id="text_4">
      <!-- 05-10 -->
      <defs>
       <path d="M 10.796875 72.90625 
L 49.515625 72.90625 
L 49.515625 64.59375 
L 19.828125 64.59375 
L 19.828125 46.734375 
Q 21.96875 47.46875 24.109375 47.828125 
Q 26.265625 48.1875 28.421875 48.1875 
Q 40.625 48.1875 47.75 41.5 
Q 54.890625 34.8125 54.890625 23.390625 
Q 54.890625 11.625 47.5625 5.09375 
Q 40.234375 -1.421875 26.90625 -1.421875 
Q 22.3125 -1.421875 17.546875 -0.640625 
Q 12.796875 0.140625 7.71875 1.703125 
L 7.71875 11.625 
Q 12.109375 9.234375 16.796875 8.0625 
Q 21.484375 6.890625 26.703125 6.890625 
Q 35.15625 6.890625 40.078125 11.328125 
Q 45.015625 15.765625 45.015625 23.390625 
Q 45.015625 31 40.078125 35.4375 
Q 35.15625 39.890625 26.703125 39.890625 
Q 22.75 39.890625 18.8125 39.015625 
Q 14.890625 38.140625 10.796875 36.28125 
z
" id="DejaVuSans-53"/>
      </defs>
      <g transform="translate(246.48658 258.509346)rotate(-30)scale(0.1 -0.1)">
       <use xlink:href="#DejaVuSans-48"/>
       <use x="63.623047" xlink:href="#DejaVuSans-53"/>
       <use x="127.246094" xlink:href="#DejaVuSans-45"/>
       <use x="163.330078" xlink:href="#DejaVuSans-49"/>
       <use x="226.953125" xlink:href="#DejaVuSans-48"/>
      </g>
     </g>
    </g>
    <g id="xtick_5">
     <g id="line2d_9">
      <path clip-path="url(#pdefd040872)" d="M 339.651228 230.4 
L 339.651228 34.56 
" style="fill:none;stroke:#b0b0b0;stroke-linecap:square;stroke-width:0.8;"/>
     </g>
     <g id="line2d_10">
      <g>
       <use style="stroke:#000000;stroke-width:0.8;" x="339.651228" xlink:href="#m091b1bd9b7" y="230.4"/>
      </g>
     </g>
     <g id="text_5">
      <!-- 06-10 -->
      <defs>
       <path d="M 33.015625 40.375 
Q 26.375 40.375 22.484375 35.828125 
Q 18.609375 31.296875 18.609375 23.390625 
Q 18.609375 15.53125 22.484375 10.953125 
Q 26.375 6.390625 33.015625 6.390625 
Q 39.65625 6.390625 43.53125 10.953125 
Q 47.40625 15.53125 47.40625 23.390625 
Q 47.40625 31.296875 43.53125 35.828125 
Q 39.65625 40.375 33.015625 40.375 
z
M 52.59375 71.296875 
L 52.59375 62.3125 
Q 48.875 64.0625 45.09375 64.984375 
Q 41.3125 65.921875 37.59375 65.921875 
Q 27.828125 65.921875 22.671875 59.328125 
Q 17.53125 52.734375 16.796875 39.40625 
Q 19.671875 43.65625 24.015625 45.921875 
Q 28.375 48.1875 33.59375 48.1875 
Q 44.578125 48.1875 50.953125 41.515625 
Q 57.328125 34.859375 57.328125 23.390625 
Q 57.328125 12.15625 50.6875 5.359375 
Q 44.046875 -1.421875 33.015625 -1.421875 
Q 20.359375 -1.421875 13.671875 8.265625 
Q 6.984375 17.96875 6.984375 36.375 
Q 6.984375 53.65625 15.1875 63.9375 
Q 23.390625 74.21875 37.203125 74.21875 
Q 40.921875 74.21875 44.703125 73.484375 
Q 48.484375 72.75 52.59375 71.296875 
z
" id="DejaVuSans-54"/>
      </defs>
      <g transform="translate(313.44658 258.509346)rotate(-30)scale(0.1 -0.1)">
       <use xlink:href="#DejaVuSans-48"/>
       <use x="63.623047" xlink:href="#DejaVuSans-54"/>
       <use x="127.246094" xlink:href="#DejaVuSans-45"/>
       <use x="163.330078" xlink:href="#DejaVuSans-49"/>
       <use x="226.953125" xlink:href="#DejaVuSans-48"/>
      </g>
     </g>
    </g>
    <g id="xtick_6">
     <g id="line2d_11">
      <path clip-path="url(#pdefd040872)" d="M 105.291228 230.4 
L 105.291228 34.56 
" style="fill:none;stroke:#b0b0b0;stroke-linecap:square;stroke-width:0.8;"/>
     </g>
     <g id="line2d_12">
      <defs>
       <path d="M 0 0 
L 0 2 
" id="md35deabecb" style="stroke:#000000;stroke-width:0.6;"/>
      </defs>
      <g>
       <use style="stroke:#000000;stroke-width:0.6;" x="105.291228" xlink:href="#md35deabecb" y="230.4"/>
      </g>
     </g>
     <g id="text_6">
      <!-- 12:00 -->
      <defs>
       <path d="M 11.71875 12.40625 
L 22.015625 12.40625 
L 22.015625 0 
L 11.71875 0 
z
M 11.71875 51.703125 
L 22.015625 51.703125 
L 22.015625 39.3125 
L 11.71875 39.3125 
z
" id="DejaVuSans-58"/>
      </defs>
      <g transform="translate(90.881853 243.398437)scale(0.1 -0.1)">
       <use xlink:href="#DejaVuSans-49"/>
       <use x="63.623047" xlink:href="#DejaVuSans-50"/>
       <use x="127.246094" xlink:href="#DejaVuSans-58"/>
       <use x="160.9375" xlink:href="#DejaVuSans-48"/>
       <use x="224.560547" xlink:href="#DejaVuSans-48"/>
      </g>
     </g>
    </g>
    <g id="xtick_7">
     <g id="line2d_13">
      <path clip-path="url(#pdefd040872)" d="M 172.251228 230.4 
L 172.251228 34.56 
" style="fill:none;stroke:#b0b0b0;stroke-linecap:square;stroke-width:0.8;"/>
     </g>
     <g id="line2d_14">
      <g>
       <use style="stroke:#000000;stroke-width:0.6;" x="172.251228" xlink:href="#md35deabecb" y="230.4"/>
      </g>
     </g>
     <g id="text_7">
      <!-- 12:00 -->
      <g transform="translate(157.841853 243.398437)scale(0.1 -0.1)">
       <use xlink:href="#DejaVuSans-49"/>
       <use x="63.623047" xlink:href="#DejaVuSans-50"/>
       <use x="127.246094" xlink:href="#DejaVuSans-58"/>
       <use x="160.9375" xlink:href="#DejaVuSans-48"/>
       <use x="224.560547" xlink:href="#DejaVuSans-48"/>
      </g>
     </g>
    </g>
    <g id="xtick_8">
     <g id="line2d_15">
      <path clip-path="url(#pdefd040872)" d="M 239.211228 230.4 
L 239.211228 34.56 
" style="fill:none;stroke:#b0b0b0;stroke-linecap:square;stroke-width:0.8;"/>
     </g>
     <g id="line2d_16">
      <g>
       <use style="stroke:#000000;stroke-width:0.6;" x="239.211228" xlink:href="#md35deabecb" y="230.4"/>
      </g>
     </g>
     <g id="text_8">
      <!-- 12:00 -->
      <g transform="translate(224.801853 243.398437)scale(0.1 -0.1)">
       <use xlink:href="#DejaVuSans-49"/>
       <use x="63.623047" xlink:href="#DejaVuSans-50"/>
       <use x="127.246094" xlink:href="#DejaVuSans-58"/>
       <use x="160.9375" xlink:href="#DejaVuSans-48"/>
       <use x="224.560547" xlink:href="#DejaVuSans-48"/>
      </g>
     </g>
    </g>
    <g id="xtick_9">
     <g id="line2d_17">
      <path clip-path="url(#pdefd040872)" d="M 306.171228 230.4 
L 306.171228 34.56 
" style="fill:none;stroke:#b0b0b0;stroke-linecap:square;stroke-width:0.8;"/>
     </g>
     <g id="line2d_18">
      <g>
       <use style="stroke:#000000;stroke-width:0.6;" x="306.171228" xlink:href="#md35deabecb" y="230.4"/>
      </g>
     </g>
     <g id="text_9">
      <!-- 12:00 -->
      <g transform="translate(291.761853 243.398437)scale(0.1 -0.1)">
       <use xlink:href="#DejaVuSans-49"/>
       <use x="63.623047" xlink:href="#DejaVuSans-50"/>
       <use x="127.246094" xlink:href="#DejaVuSans-58"/>
       <use x="160.9375" xlink:href="#DejaVuSans-48"/>
       <use x="224.560547" xlink:href="#DejaVuSans-48"/>
      </g>
     </g>
    </g>
    <g id="xtick_10">
     <g id="line2d_19">
      <path clip-path="url(#pdefd040872)" d="M 373.131228 230.4 
L 373.131228 34.56 
" style="fill:none;stroke:#b0b0b0;stroke-linecap:square;stroke-width:0.8;"/>
     </g>
     <g id="line2d_20">
      <g>
       <use style="stroke:#000000;stroke-width:0.6;" x="373.131228" xlink:href="#md35deabecb" y="230.4"/>
      </g>
     </g>
     <g id="text_10">
      <!-- 12:00 -->
      <g transform="translate(358.721853 243.398437)scale(0.1 -0.1)">
       <use xlink:href="#DejaVuSans-49"/>
       <use x="63.623047" xlink:href="#DejaVuSans-50"/>
       <use x="127.246094" xlink:href="#DejaVuSans-58"/>
       <use x="160.9375" xlink:href="#DejaVuSans-48"/>
       <use x="224.560547" xlink:href="#DejaVuSans-48"/>
      </g>
     </g>
    </g>
   </g>
   <g id="matplotlib.axis_2">
    <g id="ytick_1">
     <g id="line2d_21">
      <path clip-path="url(#pdefd040872)" d="M 54 208.407273 
L 388.8 208.407273 
" style="fill:none;stroke:#b0b0b0;stroke-linecap:square;stroke-width:0.8;"/>
     </g>
     <g id="line2d_22">
      <defs>
       <path d="M 0 0 
L -3.5 0 
" id="m7e758749e1" style="stroke:#000000;stroke-width:0.8;"/>
      </defs>
      <g>
       <use style="stroke:#000000;stroke-width:0.8;" x="54" xlink:href="#m7e758749e1" y="208.407273"/>
      </g>
     </g>
     <g id="text_11">
      <!-- 10 -->
      <g transform="translate(34.275 212.206491)scale(0.1 -0.1)">
       <use xlink:href="#DejaVuSans-49"/>
       <use x="63.623047" xlink:href="#DejaVuSans-48"/>
      </g>
     </g>
    </g>
    <g id="ytick_2">
     <g id="line2d_23">
      <path clip-path="url(#pdefd040872)" d="M 54 176.989091 
L 388.8 176.989091 
" style="fill:none;stroke:#b0b0b0;stroke-linecap:square;stroke-width:0.8;"/>
     </g>
     <g id="line2d_24">
      <g>
       <use style="stroke:#000000;stroke-width:0.8;" x="54" xlink:href="#m7e758749e1" y="176.989091"/>
      </g>
     </g>
     <g id="text_12">
      <!-- 12 -->
      <g transform="translate(34.275 180.78831)scale(0.1 -0.1)">
       <use xlink:href="#DejaVuSans-49"/>
       <use x="63.623047" xlink:href="#DejaVuSans-50"/>
      </g>
     </g>
    </g>
    <g id="ytick_3">
     <g id="line2d_25">
      <path clip-path="url(#pdefd040872)" d="M 54 145.570909 
L 388.8 145.570909 
" style="fill:none;stroke:#b0b0b0;stroke-linecap:square;stroke-width:0.8;"/>
     </g>
     <g id="line2d_26">
      <g>
       <use style="stroke:#000000;stroke-width:0.8;" x="54" xlink:href="#m7e758749e1" y="145.570909"/>
      </g>
     </g>
     <g id="text_13">
      <!-- 14 -->
      <g transform="translate(34.275 149.370128)scale(0.1 -0.1)">
       <use xlink:href="#DejaVuSans-49"/>
       <use x="63.623047" xlink:href="#DejaVuSans-52"/>
      </g>
     </g>
    </g>
    <g id="ytick_4">
     <g id="line2d_27">
      <path clip-path="url(#pdefd040872)" d="M 54 114.152727 
L 388.8 114.152727 
" style="fill:none;stroke:#b0b0b0;stroke-linecap:square;stroke-width:0.8;"/>
     </g>
     <g id="line2d_28">
      <g>
       <use style="stroke:#000000;stroke-width:0.8;" x="54" xlink:href="#m7e758749e1" y="114.152727"/>
      </g>
     </g>
     <g id="text_14">
      <!-- 16 -->
      <g transform="translate(34.275 117.951946)scale(0.1 -0.1)">
       <use xlink:href="#DejaVuSans-49"/>
       <use x="63.623047" xlink:href="#DejaVuSans-54"/>
      </g>
     </g>
    </g>
    <g id="ytick_5">
     <g id="line2d_29">
      <path clip-path="url(#pdefd040872)" d="M 54 82.734545 
L 388.8 82.734545 
" style="fill:none;stroke:#b0b0b0;stroke-linecap:square;stroke-width:0.8;"/>
     </g>
     <g id="line2d_30">
      <g>
       <use style="stroke:#000000;stroke-width:0.8;" x="54" xlink:href="#m7e758749e1" y="82.734545"/>
      </g>
     </g>
     <g id="text_15">
      <!-- 18 -->
      <defs>
       <path d="M 31.78125 34.625 
Q 24.75 34.625 20.71875 30.859375 
Q 16.703125 27.09375 16.703125 20.515625 
Q 16.703125 13.921875 20.71875 10.15625 
Q 24.75 6.390625 31.78125 6.390625 
Q 38.8125 6.390625 42.859375 10.171875 
Q 46.921875 13.96875 46.921875 20.515625 
Q 46.921875 27.09375 42.890625 30.859375 
Q 38.875 34.625 31.78125 34.625 
z
M 21.921875 38.8125 
Q 15.578125 40.375 12.03125 44.71875 
Q 8.5 49.078125 8.5 55.328125 
Q 8.5 64.0625 14.71875 69.140625 
Q 20.953125 74.21875 31.78125 74.21875 
Q 42.671875 74.21875 48.875 69.140625 
Q 55.078125 64.0625 55.078125 55.328125 
Q 55.078125 49.078125 51.53125 44.71875 
Q 48 40.375 41.703125 38.8125 
Q 48.828125 37.15625 52.796875 32.3125 
Q 56.78125 27.484375 56.78125 20.515625 
Q 56.78125 9.90625 50.3125 4.234375 
Q 43.84375 -1.421875 31.78125 -1.421875 
Q 19.734375 -1.421875 13.25 4.234375 
Q 6.78125 9.90625 6.78125 20.515625 
Q 6.78125 27.484375 10.78125 32.3125 
Q 14.796875 37.15625 21.921875 38.8125 
z
M 18.3125 54.390625 
Q 18.3125 48.734375 21.84375 45.5625 
Q 25.390625 42.390625 31.78125 42.390625 
Q 38.140625 42.390625 41.71875 45.5625 
Q 45.3125 48.734375 45.3125 54.390625 
Q 45.3125 60.0625 41.71875 63.234375 
Q 38.140625 66.40625 31.78125 66.40625 
Q 25.390625 66.40625 21.84375 63.234375 
Q 18.3125 60.0625 18.3125 54.390625 
z
" id="DejaVuSans-56"/>
      </defs>
      <g transform="translate(34.275 86.533764)scale(0.1 -0.1)">
       <use xlink:href="#DejaVuSans-49"/>
       <use x="63.623047" xlink:href="#DejaVuSans-56"/>
      </g>
     </g>
    </g>
    <g id="ytick_6">
     <g id="line2d_31">
      <path clip-path="url(#pdefd040872)" d="M 54 51.316364 
L 388.8 51.316364 
" style="fill:none;stroke:#b0b0b0;stroke-linecap:square;stroke-width:0.8;"/>
     </g>
     <g id="line2d_32">
      <g>
       <use style="stroke:#000000;stroke-width:0.8;" x="54" xlink:href="#m7e758749e1" y="51.316364"/>
      </g>
     </g>
     <g id="text_16">
      <!-- 20 -->
      <g transform="translate(34.275 55.115582)scale(0.1 -0.1)">
       <use xlink:href="#DejaVuSans-50"/>
       <use x="63.623047" xlink:href="#DejaVuSans-48"/>
      </g>
     </g>
    </g>
    <g id="text_17">
     <!-- Temperatur [°C] -->
     <defs>
      <path d="M -0.296875 72.90625 
L 61.375 72.90625 
L 61.375 64.59375 
L 35.5 64.59375 
L 35.5 0 
L 25.59375 0 
L 25.59375 64.59375 
L -0.296875 64.59375 
z
" id="DejaVuSans-84"/>
      <path d="M 56.203125 29.59375 
L 56.203125 25.203125 
L 14.890625 25.203125 
Q 15.484375 15.921875 20.484375 11.0625 
Q 25.484375 6.203125 34.421875 6.203125 
Q 39.59375 6.203125 44.453125 7.46875 
Q 49.3125 8.734375 54.109375 11.28125 
L 54.109375 2.78125 
Q 49.265625 0.734375 44.1875 -0.34375 
Q 39.109375 -1.421875 33.890625 -1.421875 
Q 20.796875 -1.421875 13.15625 6.1875 
Q 5.515625 13.8125 5.515625 26.8125 
Q 5.515625 40.234375 12.765625 48.109375 
Q 20.015625 56 32.328125 56 
Q 43.359375 56 49.78125 48.890625 
Q 56.203125 41.796875 56.203125 29.59375 
z
M 47.21875 32.234375 
Q 47.125 39.59375 43.09375 43.984375 
Q 39.0625 48.390625 32.421875 48.390625 
Q 24.90625 48.390625 20.390625 44.140625 
Q 15.875 39.890625 15.1875 32.171875 
z
" id="DejaVuSans-101"/>
      <path d="M 52 44.1875 
Q 55.375 50.25 60.0625 53.125 
Q 64.75 56 71.09375 56 
Q 79.640625 56 84.28125 50.015625 
Q 88.921875 44.046875 88.921875 33.015625 
L 88.921875 0 
L 79.890625 0 
L 79.890625 32.71875 
Q 79.890625 40.578125 77.09375 44.375 
Q 74.3125 48.1875 68.609375 48.1875 
Q 61.625 48.1875 57.5625 43.546875 
Q 53.515625 38.921875 53.515625 30.90625 
L 53.515625 0 
L 44.484375 0 
L 44.484375 32.71875 
Q 44.484375 40.625 41.703125 44.40625 
Q 38.921875 48.1875 33.109375 48.1875 
Q 26.21875 48.1875 22.15625 43.53125 
Q 18.109375 38.875 18.109375 30.90625 
L 18.109375 0 
L 9.078125 0 
L 9.078125 54.6875 
L 18.109375 54.6875 
L 18.109375 46.1875 
Q 21.1875 51.21875 25.484375 53.609375 
Q 29.78125 56 35.6875 56 
Q 41.65625 56 45.828125 52.96875 
Q 50 49.953125 52 44.1875 
z
" id="DejaVuSans-109"/>
      <path d="M 18.109375 8.203125 
L 18.109375 -20.796875 
L 9.078125 -20.796875 
L 9.078125 54.6875 
L 18.109375 54.6875 
L 18.109375 46.390625 
Q 20.953125 51.265625 25.265625 53.625 
Q 29.59375 56 35.59375 56 
Q 45.5625 56 51.78125 48.09375 
Q 58.015625 40.1875 58.015625 27.296875 
Q 58.015625 14.40625 51.78125 6.484375 
Q 45.5625 -1.421875 35.59375 -1.421875 
Q 29.59375 -1.421875 25.265625 0.953125 
Q 20.953125 3.328125 18.109375 8.203125 
z
M 48.6875 27.296875 
Q 48.6875 37.203125 44.609375 42.84375 
Q 40.53125 48.484375 33.40625 48.484375 
Q 26.265625 48.484375 22.1875 42.84375 
Q 18.109375 37.203125 18.109375 27.296875 
Q 18.109375 17.390625 22.1875 11.75 
Q 26.265625 6.109375 33.40625 6.109375 
Q 40.53125 6.109375 44.609375 11.75 
Q 48.6875 17.390625 48.6875 27.296875 
z
" id="DejaVuSans-112"/>
      <path d="M 41.109375 46.296875 
Q 39.59375 47.171875 37.8125 47.578125 
Q 36.03125 48 33.890625 48 
Q 26.265625 48 22.1875 43.046875 
Q 18.109375 38.09375 18.109375 28.8125 
L 18.109375 0 
L 9.078125 0 
L 9.078125 54.6875 
L 18.109375 54.6875 
L 18.109375 46.1875 
Q 20.953125 51.171875 25.484375 53.578125 
Q 30.03125 56 36.53125 56 
Q 37.453125 56 38.578125 55.875 
Q 39.703125 55.765625 41.0625 55.515625 
z
" id="DejaVuSans-114"/>
      <path d="M 34.28125 27.484375 
Q 23.390625 27.484375 19.1875 25 
Q 14.984375 22.515625 14.984375 16.5 
Q 14.984375 11.71875 18.140625 8.90625 
Q 21.296875 6.109375 26.703125 6.109375 
Q 34.1875 6.109375 38.703125 11.40625 
Q 43.21875 16.703125 43.21875 25.484375 
L 43.21875 27.484375 
z
M 52.203125 31.203125 
L 52.203125 0 
L 43.21875 0 
L 43.21875 8.296875 
Q 40.140625 3.328125 35.546875 0.953125 
Q 30.953125 -1.421875 24.3125 -1.421875 
Q 15.921875 -1.421875 10.953125 3.296875 
Q 6 8.015625 6 15.921875 
Q 6 25.140625 12.171875 29.828125 
Q 18.359375 34.515625 30.609375 34.515625 
L 43.21875 34.515625 
L 43.21875 35.40625 
Q 43.21875 41.609375 39.140625 45 
Q 35.0625 48.390625 27.6875 48.390625 
Q 23 48.390625 18.546875 47.265625 
Q 14.109375 46.140625 10.015625 43.890625 
L 10.015625 52.203125 
Q 14.9375 54.109375 19.578125 55.046875 
Q 24.21875 56 28.609375 56 
Q 40.484375 56 46.34375 49.84375 
Q 52.203125 43.703125 52.203125 31.203125 
z
" id="DejaVuSans-97"/>
      <path d="M 18.3125 70.21875 
L 18.3125 54.6875 
L 36.8125 54.6875 
L 36.8125 47.703125 
L 18.3125 47.703125 
L 18.3125 18.015625 
Q 18.3125 11.328125 20.140625 9.421875 
Q 21.96875 7.515625 27.59375 7.515625 
L 36.8125 7.515625 
L 36.8125 0 
L 27.59375 0 
Q 17.1875 0 13.234375 3.875 
Q 9.28125 7.765625 9.28125 18.015625 
L 9.28125 47.703125 
L 2.6875 47.703125 
L 2.6875 54.6875 
L 9.28125 54.6875 
L 9.28125 70.21875 
z
" id="DejaVuSans-116"/>
      <path d="M 8.5 21.578125 
L 8.5 54.6875 
L 17.484375 54.6875 
L 17.484375 21.921875 
Q 17.484375 14.15625 20.5 10.265625 
Q 23.53125 6.390625 29.59375 6.390625 
Q 36.859375 6.390625 41.078125 11.03125 
Q 45.3125 15.671875 45.3125 23.6875 
L 45.3125 54.6875 
L 54.296875 54.6875 
L 54.296875 0 
L 45.3125 0 
L 45.3125 8.40625 
Q 42.046875 3.421875 37.71875 1 
Q 33.40625 -1.421875 27.6875 -1.421875 
Q 18.265625 -1.421875 13.375 4.4375 
Q 8.5 10.296875 8.5 21.578125 
z
M 31.109375 56 
z
" id="DejaVuSans-117"/>
      <path id="DejaVuSans-32"/>
      <path d="M 8.59375 75.984375 
L 29.296875 75.984375 
L 29.296875 69 
L 17.578125 69 
L 17.578125 -6.203125 
L 29.296875 -6.203125 
L 29.296875 -13.1875 
L 8.59375 -13.1875 
z
" id="DejaVuSans-91"/>
      <path d="M 25 67.921875 
Q 21.09375 67.921875 18.40625 65.203125 
Q 15.71875 62.5 15.71875 58.59375 
Q 15.71875 54.734375 18.40625 52.078125 
Q 21.09375 49.421875 25 49.421875 
Q 28.90625 49.421875 31.59375 52.078125 
Q 34.28125 54.734375 34.28125 58.59375 
Q 34.28125 62.453125 31.5625 65.1875 
Q 28.859375 67.921875 25 67.921875 
z
M 25 74.21875 
Q 28.125 74.21875 31 73.015625 
Q 33.890625 71.828125 35.984375 69.578125 
Q 38.234375 67.390625 39.359375 64.59375 
Q 40.484375 61.8125 40.484375 58.59375 
Q 40.484375 52.15625 35.96875 47.6875 
Q 31.453125 43.21875 24.90625 43.21875 
Q 18.3125 43.21875 13.90625 47.609375 
Q 9.515625 52 9.515625 58.59375 
Q 9.515625 65.140625 14 69.671875 
Q 18.5 74.21875 25 74.21875 
z
" id="DejaVuSans-176"/>
      <path d="M 64.40625 67.28125 
L 64.40625 56.890625 
Q 59.421875 61.53125 53.78125 63.8125 
Q 48.140625 66.109375 41.796875 66.109375 
Q 29.296875 66.109375 22.65625 58.46875 
Q 16.015625 50.828125 16.015625 36.375 
Q 16.015625 21.96875 22.65625 14.328125 
Q 29.296875 6.6875 41.796875 6.6875 
Q 48.140625 6.6875 53.78125 8.984375 
Q 59.421875 11.28125 64.40625 15.921875 
L 64.40625 5.609375 
Q 59.234375 2.09375 53.4375 0.328125 
Q 47.65625 -1.421875 41.21875 -1.421875 
Q 24.65625 -1.421875 15.125 8.703125 
Q 5.609375 18.84375 5.609375 36.375 
Q 5.609375 53.953125 15.125 64.078125 
Q 24.65625 74.21875 41.21875 74.21875 
Q 47.75 74.21875 53.53125 72.484375 
Q 59.328125 70.75 64.40625 67.28125 
z
" id="DejaVuSans-67"/>
      <path d="M 30.421875 75.984375 
L 30.421875 -13.1875 
L 9.71875 -13.1875 
L 9.71875 -6.203125 
L 21.390625 -6.203125 
L 21.390625 69 
L 9.71875 69 
L 9.71875 75.984375 
z
" id="DejaVuSans-93"/>
     </defs>
     <g transform="translate(28.195312 172.6675)rotate(-90)scale(0.1 -0.1)">
      <use xlink:href="#DejaVuSans-84"/>
      <use x="44.083984" xlink:href="#DejaVuSans-101"/>
      <use x="105.607422" xlink:href="#DejaVuSans-109"/>
      <use x="203.019531" xlink:href="#DejaVuSans-112"/>
      <use x="266.496094" xlink:href="#DejaVuSans-101"/>
      <use x="328.019531" xlink:href="#DejaVuSans-114"/>
      <use x="369.132812" xlink:href="#DejaVuSans-97"/>
      <use x="430.412109" xlink:href="#DejaVuSans-116"/>
      <use x="469.621094" xlink:href="#DejaVuSans-117"/>
      <use x="533" xlink:href="#DejaVuSans-114"/>
      <use x="574.113281" xlink:href="#DejaVuSans-32"/>
      <use x="605.900391" xlink:href="#DejaVuSans-91"/>
      <use x="644.914062" xlink:href="#DejaVuSans-176"/>
      <use x="694.914062" xlink:href="#DejaVuSans-67"/>
      <use x="764.738281" xlink:href="#DejaVuSans-93"/>
     </g>
    </g>
   </g>
   <g id="line2d_33">
    <path clip-path="url(#pdefd040872)" d="M 54.178428 122.007273 
L 54.643428 124.625455 
L 55.108428 129.861818 
L 55.573428 133.352727 
L 56.038428 133.352727 
L 56.503428 135.098182 
L 56.968428 140.334545 
L 57.433428 142.952727 
L 58.363428 141.207273 
L 58.828428 141.207273 
L 59.293428 142.08 
L 60.223428 136.843636 
L 60.688428 135.970909 
L 61.153428 134.225455 
L 61.618428 134.225455 
L 62.083428 133.352727 
L 62.548428 134.225455 
L 63.943428 134.225455 
L 64.873428 135.970909 
L 65.338428 135.970909 
L 65.803428 137.716364 
L 66.268428 140.334545 
L 66.733428 142.08 
L 67.198428 144.698182 
L 67.663428 146.443636 
L 69.058428 149.061818 
L 69.523428 150.807273 
L 70.453428 152.552727 
L 70.918428 152.552727 
L 71.383428 154.298182 
L 71.848428 155.170909 
L 72.313428 155.170909 
L 72.778428 154.298182 
L 73.708428 150.807273 
L 74.173428 150.807273 
L 74.638428 151.68 
L 75.103428 153.425455 
L 75.568428 156.916364 
L 76.963428 164.770909 
L 77.428428 168.261818 
L 78.358428 176.116364 
L 78.823428 177.861818 
L 79.753428 190.08 
L 80.218428 190.08 
L 80.683428 195.316364 
L 81.148428 202.298182 
L 81.613428 199.68 
L 82.078428 198.807273 
L 82.543428 201.425455 
L 83.008428 201.425455 
L 83.473428 202.298182 
L 84.403428 209.28 
L 84.868428 214.516364 
L 85.333428 217.134545 
L 85.798428 216.261818 
L 86.263428 218.007273 
L 86.728428 216.261818 
L 87.193428 218.007273 
L 87.658428 221.498182 
L 88.123428 218.007273 
L 89.518428 212.770909 
L 90.913428 196.189091 
L 91.378428 185.716364 
L 91.843428 182.225455 
L 92.773428 171.752727 
L 94.168428 149.934545 
L 94.633428 145.570909 
L 95.098428 143.825455 
L 95.563428 142.952727 
L 96.028428 135.098182 
L 96.493428 131.607273 
L 96.958428 123.752727 
L 97.423428 127.243636 
L 97.888428 125.498182 
L 98.353428 117.643636 
L 98.818428 115.898182 
L 99.283428 117.643636 
L 100.213428 102.807273 
L 101.143428 97.570909 
L 101.608428 98.443636 
L 103.003428 110.661818 
L 103.468428 104.552727 
L 103.933428 104.552727 
L 104.398428 103.68 
L 104.863428 93.207273 
L 105.328428 93.207273 
L 105.793428 88.843636 
L 106.258428 82.734545 
L 106.723428 81.861818 
L 107.188428 79.243636 
L 107.653428 74.007273 
L 108.118428 72.261818 
L 108.583428 71.389091 
L 109.513428 80.989091 
L 109.978428 94.08 
L 110.443428 97.570909 
L 111.373428 97.570909 
L 111.838428 98.443636 
L 112.303428 95.825455 
L 112.768428 100.189091 
L 113.233428 107.170909 
L 113.698428 111.534545 
L 114.163428 110.661818 
L 114.628428 111.534545 
L 115.093428 110.661818 
L 115.558428 107.170909 
L 116.023428 107.170909 
L 116.488428 110.661818 
L 117.418428 118.516364 
L 117.883428 120.261818 
L 118.348428 122.88 
L 118.813428 122.88 
L 119.278428 123.752727 
L 119.743428 125.498182 
L 120.208428 125.498182 
L 120.673428 127.243636 
L 121.603428 127.243636 
L 122.533428 128.989091 
L 122.998428 128.989091 
L 123.463428 128.116364 
L 123.928428 128.116364 
L 124.858428 133.352727 
L 125.323428 135.098182 
L 125.788428 135.970909 
L 127.183428 141.207273 
L 127.648428 141.207273 
L 128.578428 144.698182 
L 129.043428 145.570909 
L 129.508428 145.570909 
L 129.973428 146.443636 
L 130.438428 148.189091 
L 130.903428 149.061818 
L 131.833428 152.552727 
L 132.298428 152.552727 
L 132.763428 151.68 
L 133.693428 151.68 
L 134.158428 152.552727 
L 134.623428 154.298182 
L 135.088428 157.789091 
L 136.018428 159.534545 
L 136.483428 159.534545 
L 136.948428 158.661818 
L 137.413428 159.534545 
L 137.878428 159.534545 
L 138.343428 160.407273 
L 138.808428 160.407273 
L 139.273428 161.28 
L 139.738428 161.28 
L 140.203428 160.407273 
L 141.133428 160.407273 
L 142.528428 157.789091 
L 142.993428 156.043636 
L 144.853428 156.043636 
L 145.783428 154.298182 
L 146.248428 154.298182 
L 146.713428 153.425455 
L 147.178428 153.425455 
L 147.643428 152.552727 
L 148.108428 152.552727 
L 148.573428 151.68 
L 149.038428 151.68 
L 149.503428 150.807273 
L 150.898428 150.807273 
L 151.363428 149.934545 
L 151.828428 150.807273 
L 154.153428 150.807273 
L 155.083428 149.061818 
L 155.548428 149.061818 
L 156.013428 149.934545 
L 156.943428 148.189091 
L 157.408428 148.189091 
L 157.873428 146.443636 
L 158.338428 145.570909 
L 159.733428 140.334545 
L 161.593428 136.843636 
L 162.058428 135.098182 
L 162.523428 132.48 
L 163.918428 122.007273 
L 164.383428 117.643636 
L 164.848428 115.025455 
L 165.313428 108.916364 
L 165.778428 108.043636 
L 166.243428 108.916364 
L 166.708428 110.661818 
L 167.173428 105.425455 
L 167.638428 95.825455 
L 168.103428 94.08 
L 168.568428 83.607273 
L 169.033428 77.498182 
L 169.498428 76.625455 
L 170.428428 73.134545 
L 170.893428 65.28 
L 171.358428 67.898182 
L 171.823428 63.534545 
L 172.288428 64.407273 
L 172.753428 55.68 
L 173.218428 50.443636 
L 173.683428 47.825455 
L 174.148428 48.698182 
L 174.613428 46.952727 
L 175.078428 43.461818 
L 175.543428 43.461818 
L 176.008428 46.08 
L 176.938428 47.825455 
L 178.333428 47.825455 
L 178.798428 46.952727 
L 179.728428 46.952727 
L 180.658428 48.698182 
L 181.123428 48.698182 
L 181.588428 51.316364 
L 182.053428 52.189091 
L 182.983428 55.68 
L 183.913428 57.425455 
L 184.843428 57.425455 
L 185.308428 59.170909 
L 185.773428 60.043636 
L 186.238428 62.661818 
L 186.703428 66.152727 
L 187.168428 71.389091 
L 187.633428 78.370909 
L 188.563428 95.825455 
L 189.028428 101.934545 
L 189.958428 110.661818 
L 190.423428 118.516364 
L 190.888428 122.88 
L 190.888428 122.88 
" style="fill:none;stroke:#d62728;stroke-linecap:square;stroke-width:1.5;"/>
   </g>
   <g id="patch_3">
    <path d="M 54 230.4 
L 54 34.56 
" style="fill:none;stroke:#000000;stroke-linecap:square;stroke-linejoin:miter;stroke-width:0.8;"/>
   </g>
   <g id="patch_4">
    <path d="M 388.8 230.4 
L 388.8 34.56 
" style="fill:none;stroke:#000000;stroke-linecap:square;stroke-linejoin:miter;stroke-width:0.8;"/>
   </g>
   <g id="patch_5">
    <path d="M 54 230.4 
L 388.8 230.4 
" style="fill:none;stroke:#000000;stroke-linecap:square;stroke-linejoin:miter;stroke-width:0.8;"/>
   </g>
   <g id="patch_6">
    <path d="M 54 34.56 
L 388.8 34.56 
" style="fill:none;stroke:#000000;stroke-linecap:square;stroke-linejoin:miter;stroke-width:0.8;"/>
   </g>
  </g>
  <g id="axes_2">
   <g id="matplotlib.axis_3">
    <g id="ytick_7">
     <g id="line2d_34">
      <defs>
       <path d="M 0 0 
L 3.5 0 
" id="m2dbf7db190" style="stroke:#000000;stroke-width:0.8;"/>
      </defs>
      <g>
       <use style="stroke:#000000;stroke-width:0.8;" x="388.8" xlink:href="#m2dbf7db190" y="230.4"/>
      </g>
     </g>
     <g id="text_18">
      <!-- 0 -->
      <g transform="translate(395.8 234.199219)scale(0.1 -0.1)">
       <use xlink:href="#DejaVuSans-48"/>
      </g>
     </g>
    </g>
    <g id="ytick_8">
     <g id="line2d_35">
      <g>
       <use style="stroke:#000000;stroke-width:0.8;" x="388.8" xlink:href="#m2dbf7db190" y="191.232"/>
      </g>
     </g>
     <g id="text_19">
      <!-- 20 -->
      <g transform="translate(395.8 195.031219)scale(0.1 -0.1)">
       <use xlink:href="#DejaVuSans-50"/>
       <use x="63.623047" xlink:href="#DejaVuSans-48"/>
      </g>
     </g>
    </g>
    <g id="ytick_9">
     <g id="line2d_36">
      <g>
       <use style="stroke:#000000;stroke-width:0.8;" x="388.8" xlink:href="#m2dbf7db190" y="152.064"/>
      </g>
     </g>
     <g id="text_20">
      <!-- 40 -->
      <g transform="translate(395.8 155.863219)scale(0.1 -0.1)">
       <use xlink:href="#DejaVuSans-52"/>
       <use x="63.623047" xlink:href="#DejaVuSans-48"/>
      </g>
     </g>
    </g>
    <g id="ytick_10">
     <g id="line2d_37">
      <g>
       <use style="stroke:#000000;stroke-width:0.8;" x="388.8" xlink:href="#m2dbf7db190" y="112.896"/>
      </g>
     </g>
     <g id="text_21">
      <!-- 60 -->
      <g transform="translate(395.8 116.695219)scale(0.1 -0.1)">
       <use xlink:href="#DejaVuSans-54"/>
       <use x="63.623047" xlink:href="#DejaVuSans-48"/>
      </g>
     </g>
    </g>
    <g id="ytick_11">
     <g id="line2d_38">
      <g>
       <use style="stroke:#000000;stroke-width:0.8;" x="388.8" xlink:href="#m2dbf7db190" y="73.728"/>
      </g>
     </g>
     <g id="text_22">
      <!-- 80 -->
      <g transform="translate(395.8 77.527219)scale(0.1 -0.1)">
       <use xlink:href="#DejaVuSans-56"/>
       <use x="63.623047" xlink:href="#DejaVuSans-48"/>
      </g>
     </g>
    </g>
    <g id="ytick_12">
     <g id="line2d_39">
      <g>
       <use style="stroke:#000000;stroke-width:0.8;" x="388.8" xlink:href="#m2dbf7db190" y="34.56"/>
      </g>
     </g>
     <g id="text_23">
      <!-- 100 -->
      <g transform="translate(395.8 38.359219)scale(0.1 -0.1)">
       <use xlink:href="#DejaVuSans-49"/>
       <use x="63.623047" xlink:href="#DejaVuSans-48"/>
       <use x="127.246094" xlink:href="#DejaVuSans-48"/>
      </g>
     </g>
    </g>
    <g id="text_24">
     <!-- rel. Luftfeuchte [%] -->
     <defs>
      <path d="M 9.421875 75.984375 
L 18.40625 75.984375 
L 18.40625 0 
L 9.421875 0 
z
" id="DejaVuSans-108"/>
      <path d="M 10.6875 12.40625 
L 21 12.40625 
L 21 0 
L 10.6875 0 
z
" id="DejaVuSans-46"/>
      <path d="M 9.8125 72.90625 
L 19.671875 72.90625 
L 19.671875 8.296875 
L 55.171875 8.296875 
L 55.171875 0 
L 9.8125 0 
z
" id="DejaVuSans-76"/>
      <path d="M 37.109375 75.984375 
L 37.109375 68.5 
L 28.515625 68.5 
Q 23.6875 68.5 21.796875 66.546875 
Q 19.921875 64.59375 19.921875 59.515625 
L 19.921875 54.6875 
L 34.71875 54.6875 
L 34.71875 47.703125 
L 19.921875 47.703125 
L 19.921875 0 
L 10.890625 0 
L 10.890625 47.703125 
L 2.296875 47.703125 
L 2.296875 54.6875 
L 10.890625 54.6875 
L 10.890625 58.5 
Q 10.890625 67.625 15.140625 71.796875 
Q 19.390625 75.984375 28.609375 75.984375 
z
" id="DejaVuSans-102"/>
      <path d="M 48.78125 52.59375 
L 48.78125 44.1875 
Q 44.96875 46.296875 41.140625 47.34375 
Q 37.3125 48.390625 33.40625 48.390625 
Q 24.65625 48.390625 19.8125 42.84375 
Q 14.984375 37.3125 14.984375 27.296875 
Q 14.984375 17.28125 19.8125 11.734375 
Q 24.65625 6.203125 33.40625 6.203125 
Q 37.3125 6.203125 41.140625 7.25 
Q 44.96875 8.296875 48.78125 10.40625 
L 48.78125 2.09375 
Q 45.015625 0.34375 40.984375 -0.53125 
Q 36.96875 -1.421875 32.421875 -1.421875 
Q 20.0625 -1.421875 12.78125 6.34375 
Q 5.515625 14.109375 5.515625 27.296875 
Q 5.515625 40.671875 12.859375 48.328125 
Q 20.21875 56 33.015625 56 
Q 37.15625 56 41.109375 55.140625 
Q 45.0625 54.296875 48.78125 52.59375 
z
" id="DejaVuSans-99"/>
      <path d="M 54.890625 33.015625 
L 54.890625 0 
L 45.90625 0 
L 45.90625 32.71875 
Q 45.90625 40.484375 42.875 44.328125 
Q 39.84375 48.1875 33.796875 48.1875 
Q 26.515625 48.1875 22.3125 43.546875 
Q 18.109375 38.921875 18.109375 30.90625 
L 18.109375 0 
L 9.078125 0 
L 9.078125 75.984375 
L 18.109375 75.984375 
L 18.109375 46.1875 
Q 21.34375 51.125 25.703125 53.5625 
Q 30.078125 56 35.796875 56 
Q 45.21875 56 50.046875 50.171875 
Q 54.890625 44.34375 54.890625 33.015625 
z
" id="DejaVuSans-104"/>
      <path d="M 72.703125 32.078125 
Q 68.453125 32.078125 66.03125 28.46875 
Q 63.625 24.859375 63.625 18.40625 
Q 63.625 12.0625 66.03125 8.421875 
Q 68.453125 4.78125 72.703125 4.78125 
Q 76.859375 4.78125 79.265625 8.421875 
Q 81.6875 12.0625 81.6875 18.40625 
Q 81.6875 24.8125 79.265625 28.4375 
Q 76.859375 32.078125 72.703125 32.078125 
z
M 72.703125 38.28125 
Q 80.421875 38.28125 84.953125 32.90625 
Q 89.5 27.546875 89.5 18.40625 
Q 89.5 9.28125 84.9375 3.921875 
Q 80.375 -1.421875 72.703125 -1.421875 
Q 64.890625 -1.421875 60.34375 3.921875 
Q 55.8125 9.28125 55.8125 18.40625 
Q 55.8125 27.59375 60.375 32.9375 
Q 64.9375 38.28125 72.703125 38.28125 
z
M 22.3125 68.015625 
Q 18.109375 68.015625 15.6875 64.375 
Q 13.28125 60.75 13.28125 54.390625 
Q 13.28125 47.953125 15.671875 44.328125 
Q 18.0625 40.71875 22.3125 40.71875 
Q 26.5625 40.71875 28.96875 44.328125 
Q 31.390625 47.953125 31.390625 54.390625 
Q 31.390625 60.6875 28.953125 64.34375 
Q 26.515625 68.015625 22.3125 68.015625 
z
M 66.40625 74.21875 
L 74.21875 74.21875 
L 28.609375 -1.421875 
L 20.796875 -1.421875 
z
M 22.3125 74.21875 
Q 30.03125 74.21875 34.609375 68.875 
Q 39.203125 63.53125 39.203125 54.390625 
Q 39.203125 45.171875 34.640625 39.84375 
Q 30.078125 34.515625 22.3125 34.515625 
Q 14.546875 34.515625 10.03125 39.859375 
Q 5.515625 45.21875 5.515625 54.390625 
Q 5.515625 63.484375 10.046875 68.84375 
Q 14.59375 74.21875 22.3125 74.21875 
z
" id="DejaVuSans-37"/>
     </defs>
     <g transform="translate(426.485937 180.768281)rotate(-90)scale(0.1 -0.1)">
      <use xlink:href="#DejaVuSans-114"/>
      <use x="38.863281" xlink:href="#DejaVuSans-101"/>
      <use x="100.386719" xlink:href="#DejaVuSans-108"/>
      <use x="128.169922" xlink:href="#DejaVuSans-46"/>
      <use x="159.957031" xlink:href="#DejaVuSans-32"/>
      <use x="191.744141" xlink:href="#DejaVuSans-76"/>
      <use x="245.707031" xlink:href="#DejaVuSans-117"/>
      <use x="309.085938" xlink:href="#DejaVuSans-102"/>
      <use x="342.541016" xlink:href="#DejaVuSans-116"/>
      <use x="381.75" xlink:href="#DejaVuSans-102"/>
      <use x="416.955078" xlink:href="#DejaVuSans-101"/>
      <use x="478.478516" xlink:href="#DejaVuSans-117"/>
      <use x="541.857422" xlink:href="#DejaVuSans-99"/>
      <use x="596.837891" xlink:href="#DejaVuSans-104"/>
      <use x="660.216797" xlink:href="#DejaVuSans-116"/>
      <use x="699.425781" xlink:href="#DejaVuSans-101"/>
      <use x="760.949219" xlink:href="#DejaVuSans-32"/>
      <use x="792.736328" xlink:href="#DejaVuSans-91"/>
      <use x="831.75" xlink:href="#DejaVuSans-37"/>
      <use x="926.769531" xlink:href="#DejaVuSans-93"/>
     </g>
    </g>
   </g>
   <g id="line2d_40">
    <path clip-path="url(#pdefd040872)" d="M 54.178428 79.40736 
L 54.643428 77.6448 
L 55.108428 74.90304 
L 55.573428 73.92384 
L 56.038428 73.728 
L 57.433428 68.24448 
L 57.898428 69.41952 
L 58.363428 70.00704 
L 58.828428 69.61536 
L 60.223428 71.37792 
L 61.153428 74.11968 
L 61.618428 74.7072 
L 62.083428 74.31552 
L 62.548428 74.11968 
L 63.013428 73.53216 
L 63.478428 71.7696 
L 63.943428 72.16128 
L 64.408428 71.37792 
L 65.803428 57.27744 
L 66.268428 53.1648 
L 66.733428 50.81472 
L 67.198428 50.42304 
L 67.663428 50.42304 
L 68.128428 50.03136 
L 68.593428 48.85632 
L 69.058428 48.2688 
L 69.523428 47.2896 
L 69.988428 46.70208 
L 70.453428 46.50624 
L 70.918428 46.11456 
L 71.383428 45.91872 
L 71.848428 45.91872 
L 72.313428 45.52704 
L 72.778428 45.3312 
L 73.243428 46.3104 
L 73.708428 47.68128 
L 74.638428 49.05216 
L 75.103428 49.44384 
L 75.568428 49.05216 
L 76.033428 49.05216 
L 76.498428 47.87712 
L 76.963428 48.46464 
L 77.428428 47.87712 
L 77.893428 47.87712 
L 78.358428 45.52704 
L 78.823428 43.96032 
L 79.288428 47.87712 
L 79.753428 45.91872 
L 80.218428 43.3728 
L 80.683428 46.3104 
L 81.148428 44.352 
L 81.613428 41.4144 
L 82.078428 42.3936 
L 82.543428 42.3936 
L 83.008428 41.61024 
L 83.473428 42.00192 
L 83.938428 43.3728 
L 84.403428 42.98112 
L 84.868428 44.15616 
L 85.333428 41.80608 
L 85.798428 41.61024 
L 86.263428 40.82688 
L 86.728428 40.63104 
L 87.193428 42.00192 
L 87.658428 41.61024 
L 88.123428 39.84768 
L 88.588428 40.04352 
L 89.053428 39.84768 
L 89.518428 39.84768 
L 89.983428 39.06432 
L 90.448428 39.06432 
L 90.913428 39.26016 
L 91.378428 39.06432 
L 92.308428 42.19776 
L 92.773428 44.15616 
L 93.238428 44.74368 
L 93.703428 50.2272 
L 94.168428 53.94816 
L 94.633428 53.1648 
L 95.098428 54.73152 
L 95.563428 57.47328 
L 96.028428 58.84416 
L 96.493428 61.19424 
L 96.958428 62.36928 
L 97.888428 61.19424 
L 98.353428 65.8944 
L 98.818428 67.65696 
L 99.283428 68.832 
L 99.748428 70.39872 
L 100.213428 74.7072 
L 100.678428 75.49056 
L 101.143428 78.23232 
L 101.608428 73.92384 
L 102.073428 71.37792 
L 102.538428 67.65696 
L 103.003428 71.57376 
L 103.468428 69.22368 
L 103.933428 71.7696 
L 104.398428 70.20288 
L 104.863428 75.09888 
L 105.328428 74.31552 
L 105.793428 75.29472 
L 106.258428 88.61184 
L 106.723428 86.06592 
L 107.188428 87.63264 
L 107.653428 90.57024 
L 108.118428 89.78688 
L 108.583428 88.22016 
L 109.048428 85.67424 
L 109.513428 84.4992 
L 109.978428 80.77824 
L 110.443428 75.6864 
L 110.908428 78.42816 
L 111.373428 77.6448 
L 111.838428 78.03648 
L 112.303428 79.79904 
L 112.768428 77.05728 
L 113.233428 76.27392 
L 113.698428 75.09888 
L 114.163428 74.90304 
L 114.628428 73.92384 
L 115.093428 74.31552 
L 115.558428 75.29472 
L 116.023428 74.51136 
L 116.488428 74.11968 
L 117.418428 69.61536 
L 117.883428 68.44032 
L 118.348428 67.65696 
L 118.813428 68.832 
L 119.278428 68.04864 
L 120.208428 68.04864 
L 120.673428 66.8736 
L 121.138428 67.46112 
L 122.068428 67.06944 
L 122.998428 66.28608 
L 123.463428 66.67776 
L 123.928428 66.8736 
L 124.393428 66.48192 
L 124.858428 65.11104 
L 125.323428 64.71936 
L 126.253428 63.54432 
L 126.718428 63.15264 
L 127.183428 62.36928 
L 127.648428 62.56512 
L 128.113428 62.17344 
L 128.578428 61.58592 
L 129.043428 61.58592 
L 129.508428 61.9776 
L 129.973428 61.39008 
L 130.438428 60.60672 
L 130.903428 60.60672 
L 131.368428 59.82336 
L 131.833428 58.64832 
L 132.298428 58.64832 
L 133.228428 58.25664 
L 133.693428 58.45248 
L 134.158428 58.25664 
L 134.623428 57.47328 
L 135.088428 56.1024 
L 135.553428 55.1232 
L 136.018428 54.53568 
L 136.483428 54.33984 
L 136.948428 54.53568 
L 137.413428 54.53568 
L 137.878428 54.144 
L 139.273428 53.55648 
L 139.738428 53.75232 
L 140.203428 53.75232 
L 140.668428 53.55648 
L 141.598428 53.94816 
L 142.063428 53.75232 
L 142.993428 54.144 
L 144.388428 54.144 
L 144.853428 53.94816 
L 145.318428 54.144 
L 145.783428 54.53568 
L 146.713428 54.144 
L 147.643428 54.144 
L 148.108428 53.94816 
L 148.573428 54.144 
L 149.503428 54.144 
L 149.968428 54.53568 
L 150.433428 54.33984 
L 150.898428 53.94816 
L 151.828428 53.94816 
L 152.293428 53.75232 
L 152.758428 53.36064 
L 153.223428 53.55648 
L 154.153428 53.55648 
L 155.083428 54.33984 
L 155.548428 54.144 
L 156.013428 53.75232 
L 156.478428 53.94816 
L 156.943428 53.94816 
L 157.408428 54.33984 
L 157.873428 53.94816 
L 158.803428 55.1232 
L 159.268428 55.1232 
L 159.733428 56.29824 
L 160.198428 56.49408 
L 160.663428 56.88576 
L 161.128428 56.68992 
L 162.058428 57.47328 
L 162.988428 58.84416 
L 164.383428 64.52352 
L 164.848428 65.30688 
L 165.313428 68.44032 
L 165.778428 69.22368 
L 166.243428 69.61536 
L 166.708428 67.46112 
L 167.638428 71.96544 
L 168.103428 73.92384 
L 169.033428 78.81984 
L 169.498428 81.36576 
L 169.963428 79.6032 
L 170.893428 84.30336 
L 171.358428 83.91168 
L 171.823428 84.10752 
L 172.288428 83.91168 
L 173.218428 89.00352 
L 173.683428 90.57024 
L 174.148428 88.61184 
L 174.613428 89.00352 
L 175.078428 91.3536 
L 175.543428 94.2912 
L 176.008428 91.94112 
L 176.473428 91.54944 
L 176.938428 89.98272 
L 177.868428 90.3744 
L 178.333428 91.74528 
L 178.798428 91.74528 
L 179.263428 91.3536 
L 179.728428 91.3536 
L 180.193428 90.76608 
L 180.658428 88.61184 
L 181.123428 87.82848 
L 181.588428 87.4368 
L 182.518428 85.28256 
L 183.448428 85.28256 
L 183.913428 84.10752 
L 184.378428 85.87008 
L 184.843428 89.98272 
L 185.308428 90.96192 
L 185.773428 90.17856 
L 186.238428 91.3536 
L 186.703428 91.15776 
L 187.168428 87.82848 
L 187.633428 87.04512 
L 188.098428 86.65344 
L 188.563428 84.10752 
L 189.028428 80.38656 
L 189.493428 79.21152 
L 189.958428 80.19072 
L 190.423428 79.6032 
L 190.888428 77.84064 
L 190.888428 77.84064 
" style="fill:none;stroke:#2ca02c;stroke-linecap:square;stroke-width:1.5;"/>
   </g>
   <g id="patch_7">
    <path d="M 54 230.4 
L 54 34.56 
" style="fill:none;stroke:#000000;stroke-linecap:square;stroke-linejoin:miter;stroke-width:0.8;"/>
   </g>
   <g id="patch_8">
    <path d="M 388.8 230.4 
L 388.8 34.56 
" style="fill:none;stroke:#000000;stroke-linecap:square;stroke-linejoin:miter;stroke-width:0.8;"/>
   </g>
   <g id="patch_9">
    <path d="M 54 230.4 
L 388.8 230.4 
" style="fill:none;stroke:#000000;stroke-linecap:square;stroke-linejoin:miter;stroke-width:0.8;"/>
   </g>
   <g id="patch_10">
    <path d="M 54 34.56 
L 388.8 34.56 
" style="fill:none;stroke:#000000;stroke-linecap:square;stroke-linejoin:miter;stroke-width:0.8;"/>
   </g>
  </g>
 </g>
 <defs>
  <clipPath id="pdefd040872">
   <rect height="195.84" width="334.8" x="54" y="34.56"/>
  </clipPath>
 </defs>
</svg>
